<?xml version="1.0" encoding="UTF-8" standalone="no"?>
<!-- Created with Inkscape (http://www.inkscape.org/) -->

<svg
   width="210mm"
   height="297mm"
   viewBox="0 0 210 297"
   version="1.1"
   id="svg1"
   inkscape:export-filename="slimak.png"
   inkscape:export-xdpi="96"
   inkscape:export-ydpi="96"
   inkscape:version="1.3.2 (091e20e, 2023-11-25, custom)"
   sodipodi:docname="slimak.svg"
   xmlns:inkscape="http://www.inkscape.org/namespaces/inkscape"
   xmlns:sodipodi="http://sodipodi.sourceforge.net/DTD/sodipodi-0.dtd"
   xmlns="http://www.w3.org/2000/svg"
   xmlns:svg="http://www.w3.org/2000/svg">
  <sodipodi:namedview
     id="namedview1"
     pagecolor="#ffffff"
     bordercolor="#000000"
     borderopacity="0.25"
     inkscape:showpageshadow="2"
     inkscape:pageopacity="0.0"
     inkscape:pagecheckerboard="0"
     inkscape:deskcolor="#d1d1d1"
     inkscape:document-units="mm"
     inkscape:zoom="0.44631734"
     inkscape:cx="396.57881"
     inkscape:cy="561.25984"
     inkscape:window-width="1366"
     inkscape:window-height="697"
     inkscape:window-x="-8"
     inkscape:window-y="-8"
     inkscape:window-maximized="1"
     inkscape:current-layer="layer1" />
  <defs
     id="defs1">
    <inkscape:path-effect
       effect="skeletal"
       id="path-effect5"
       is_visible="true"
       lpeversion="1"
       pattern="M 0,4.9921382 C 0,2.2364779 2.2364779,0 4.9921382,0 c 2.7556604,0 4.9921383,2.2364779 4.9921383,4.9921382 0,2.7556604 -2.2364779,4.9921383 -4.9921383,4.9921383 C 2.2364779,9.9842765 0,7.7477986 0,4.9921382 Z"
       copytype="single_stretched"
       prop_scale="0.31306423"
       scale_y_rel="false"
       spacing="0"
       normal_offset="0"
       tang_offset="0"
       prop_units="false"
       vertical_pattern="false"
       hide_knot="false"
       fuse_tolerance="0" />
    <inkscape:path-effect
       effect="bspline"
       id="path-effect4"
       is_visible="true"
       lpeversion="1.3"
       weight="33.333333"
       steps="2"
       helper_size="0"
       apply_no_weight="true"
       apply_with_weight="true"
       only_selected="false"
       uniform="false" />
    <inkscape:path-effect
       effect="skeletal"
       id="path-effect3"
       is_visible="true"
       lpeversion="1"
       pattern="M 0,4.9921382 C 0,2.2364779 2.2364779,0 4.9921382,0 c 2.7556604,0 4.9921383,2.2364779 4.9921383,4.9921382 0,2.7556604 -2.2364779,4.9921383 -4.9921383,4.9921383 C 2.2364779,9.9842765 0,7.7477986 0,4.9921382 Z"
       copytype="single_stretched"
       prop_scale="0.31306423"
       scale_y_rel="false"
       spacing="0"
       normal_offset="0"
       tang_offset="0"
       prop_units="false"
       vertical_pattern="false"
       hide_knot="false"
       fuse_tolerance="0" />
    <inkscape:path-effect
       effect="spiro"
       id="path-effect2"
       is_visible="true"
       lpeversion="1" />
  </defs>
  <g
     inkscape:label="Warstwa 1"
     inkscape:groupmode="layer"
     id="layer1">
    <ellipse
       style="fill:#000080;stroke:#7fc532;stroke-width:0.665001"
       id="path1"
       cx="104.03892"
       cy="115.8952"
       rx="29.344311"
       ry="28.158682" />
    <path
       style="fill:#000080;stroke:none;stroke-width:0.665001"
       d="m 77.065867,129.23353 c 0.151161,-0.12102 2.000144,2.19369 6.609583,4.66677 1.999757,1.06928 4.513033,2.13122 7.378345,3.54773 2.047642,1.01165 4.191333,2.24001 6.569696,3.26978 2.040483,0.87716 4.381189,1.65994 6.760129,1.7244 2.33216,0.0872 4.74051,-0.50468 7.22919,-1.47673 2.363,-0.93141 4.45521,-2.08437 7.0241,-3.33669 5.98418,-2.91896 12.74672,-5.29217 19.50408,-8.4627 0,0 0,0 1e-5,0 4.12964,-1.96684 8.48399,-4.33418 11.29223,-7.95747 1.308,-1.63932 2.31546,-3.56902 3.50305,-5.61968 1.12828,-1.98623 2.45642,-4.0787 4.31481,-5.84146 2.14728,-2.02746 5.02725,-3.40897 8.15844,-3.54364 1.53863,-0.057 3.10538,0.21401 4.56341,0.83666 1.44479,0.61805 2.74978,1.59063 3.75449,2.85666 1.40321,1.79972 2.1119,4.0521 2.06282,6.30558 -0.0511,2.21711 -0.76928,4.36457 -1.97762,6.18429 -0.99165,1.49332 -2.2709,2.76396 -3.72723,3.77216 -0.39216,0.27149 -0.79616,0.52324 -1.20956,0.75471 -1.95243,1.09364 -4.07795,1.7626 -6.20778,2.08348 0,0 -1e-5,0 -1e-5,0 -2.56404,0.38146 -5.08095,0.31564 -7.37147,0.40126 -2.3516,0.11411 -4.58462,0.34593 -6.44609,1.23311 -1.67376,0.74565 -3.16222,2.06068 -4.59496,3.47256 0,0 -1e-5,0 -1e-5,0 -1.45337,1.45751 -2.86783,3.08587 -4.54108,4.55867 -3.15913,2.74423 -6.85295,4.58981 -10.40702,6.03021 -3.73735,1.52816 -7.40879,2.71412 -10.76681,4.19345 -2.59293,1.14006 -5.12985,2.48659 -7.79909,3.54662 -2.82517,1.13553 -5.78985,1.87846 -8.81404,1.78503 -3.632828,-0.15641 -6.947418,-1.51359 -9.70085,-3.12693 -2.88622,-1.67794 -5.734366,-3.90909 -8.061127,-5.56829 -4.906282,-3.4914 -7.986568,-5.21084 -11.790205,-8.53429 -0.983557,-0.85576 -1.87631,-1.73257 -2.614804,-2.75268 -0.817724,-1.12319 -1.347371,-2.37349 -1.501915,-3.64978 -0.179247,-1.4724 0.233159,-2.87153 1.027973,-3.88037 0.457764,-0.57271 1.034022,-0.99435 1.645566,-1.24989 0.690586,-0.28797 1.409575,-0.34695 2.05031,-0.23246 1.201956,0.23597 2.057975,1.00682 2.560968,1.59459 0,0 10e-7,1e-5 10e-7,1e-5 1.258752,1.45339 1.609768,2.34545 1.522476,2.41534 -0.08729,0.0699 -0.685639,-0.77518 -1.990312,-1.96093 -10e-7,0 -10e-7,0 -2e-6,0 -0.520823,-0.46665 -1.333574,-1.07221 -2.225651,-1.14291 -0.473452,-0.0485 -1.000242,0.0408 -1.487569,0.28274 -0.43332,0.21449 -0.837207,0.55966 -1.148505,0.99848 -0.553726,0.76502 -0.780026,1.87566 -0.604559,2.99008 0.157107,0.99476 0.651546,1.98123 1.376673,2.91672 0.664891,0.85243 1.501007,1.59666 2.47109,2.3881 3.854365,3.13068 6.754603,4.57993 11.922367,8.06451 2.426076,1.63251 5.296299,3.77725 8.009128,5.26742 2.600884,1.41609 5.580354,2.60084 8.612127,2.63618 2.52878,0.0663 5.11503,-0.66136 7.73632,-1.72665 2.47465,-1.01853 4.95221,-2.38087 7.66253,-3.61236 3.51218,-1.59294 7.20649,-2.83372 10.79032,-4.33901 3.39358,-1.43828 6.80408,-3.14846 9.53285,-5.59303 1.46455,-1.29245 2.81621,-2.87915 4.36775,-4.44819 0,0 1e-5,0 1e-5,0 1.50915,-1.5512 3.28236,-3.08022 5.46625,-4.11938 2.4756,-1.11943 5.10422,-1.45726 7.61416,-1.54012 2.43463,-0.10583 4.83902,-0.0344 7.02336,-0.38239 0,0 1e-5,0 1e-5,0 1.81197,-0.28464 3.58412,-0.83406 5.14692,-1.72174 0.3295,-0.18726 0.65117,-0.38905 0.96258,-0.60477 1.15654,-0.80115 2.1607,-1.78671 2.90161,-2.91944 0.89737,-1.37194 1.44824,-2.96416 1.46994,-4.52411 0.0246,-1.57022 -0.45361,-3.16156 -1.38474,-4.32732 -0.65201,-0.83863 -1.5514,-1.50721 -2.54131,-1.9402 -1.00195,-0.4393 -2.12667,-0.63387 -3.23719,-0.60239 -2.25645,0.0453 -4.48984,1.13503 -6.20026,2.69227 -1.50852,1.3659 -2.67141,3.22318 -3.79925,5.1205 -1.15619,1.98374 -2.26672,4.02952 -3.79604,5.94529 -3.40221,4.15803 -8.11338,6.7196 -12.42036,8.64134 0,0 0,0 0,0 -6.98615,3.16411 -13.74029,5.40656 -19.62166,8.1361 -2.52422,1.17223 -4.71664,2.3104 -7.26184,3.25254 -2.68971,1.00453 -5.42132,1.57062 -8.12558,1.41908 -2.76469,-0.17943 -5.295761,-1.09855 -7.413679,-2.1135 -2.209531,-1.05224 -4.819254,-2.62512 -6.525962,-3.56298 -2.738811,-1.50411 -5.239959,-2.72187 -7.22194,-3.94994 -4.690771,-2.89736 -6.178394,-5.52489 -6.059592,-5.62 z"
       id="path2"
       inkscape:path-effect="#path-effect2;#path-effect3"
       inkscape:original-d="m 77.065867,129.23353 c 1.383233,1.18563 9.287425,5.92814 13.63473,8.89222 4.347305,2.96407 9.089821,3.55688 13.634733,5.33533 4.54491,1.77844 9.68263,-3.16168 14.82036,-4.74252 5.13772,-1.58084 13.43712,-5.92814 19.56287,-8.2994 6.12575,-2.37126 7.50898,-5.13773 11.85629,-8.2994 4.3473,-3.16168 5.33533,-7.50898 7.70658,-11.26347 2.37126,-3.7545 9.08983,0.39521 14.22755,0 5.13772,-0.39521 0,6.71856 0,10.67065 0,3.9521 -6.71856,3.9521 -10.07784,5.92815 -3.35929,1.97605 -9.68264,1.58084 -14.22755,1.77844 -4.54491,0.19761 -6.12575,5.33533 -9.48503,8.2994 -3.35928,2.96408 -13.63473,6.52096 -20.7485,10.07785 -7.11377,3.55688 -10.67066,3.55688 -16.00599,5.33533 -5.335327,1.77844 -11.856288,-5.73054 -17.191616,-8.29941 -5.335328,-2.56886 -7.508981,-5.33532 -11.856286,-8.2994 -4.347308,-2.96407 0,-7.11377 0,-10.67065 0,-3.55689 2.766465,2.37125 4.149699,3.55688 z" />
    <path
       style="fill:#ff00ff;stroke:none;stroke-width:0.665001"
       d="m 94.850298,133.97605 c -0.21556,0.11412 -1.365192,-1.49542 -3.23403,-4.53831 -1.609264,-2.62024 -4.788446,-7.93998 -5.866394,-13.85254 0,0 -1e-6,-1e-5 -1e-6,-1e-5 -0.693117,-4.14053 0.56503,-8.99643 4.136924,-12.65654 2.780267,-2.84068 6.465088,-5.068406 10.698793,-6.203001 3.38626,-0.952002 7.36756,-1.364068 11.17715,-0.09173 0.0412,0.01591 0.0823,0.03209 0.12308,0.04852 2.74165,1.103175 4.54272,3.338496 5.66687,5.527296 1.27132,2.23535 2.47138,4.75361 2.51928,7.65856 -0.12539,2.90813 -1.83376,5.21282 -3.80297,6.59123 -2.6739,1.94434 -5.73496,2.9264 -8.56822,3.30896 -1.72954,0.24223 -3.42234,0.28176 -5.04799,0.11322 -1.35896,-0.1 -2.810956,-0.40465 -4.096689,-1.275 -1.044374,-0.77989 -1.533353,-1.97746 -1.454384,-3.14428 0.133153,-1.27349 0.695321,-2.31305 1.306355,-3.08863 1.561905,-2.09826 3.719718,-3.25264 5.579948,-3.57448 1.99939,-0.30448 3.79392,0.49762 4.50627,0.84357 0.75013,0.34718 1.17638,0.5725 1.17638,0.62059 0,0.15701 -0.49807,0.21485 -1.3925,0.0278 -0.71901,-0.13655 -2.61504,-0.58367 -3.99071,-0.14444 -1.48859,0.42265 -3.09461,1.51634 -4.300288,3.34165 -0.413085,0.675 -0.786621,1.42194 -0.768522,2.09848 -0.01543,0.43686 0.238616,0.95327 0.620461,1.15361 0.711899,0.5032 1.758959,0.58296 3.017019,0.70109 1.41772,0.0851 2.90147,-0.014 4.43703,-0.28198 2.49203,-0.44942 5.11796,-1.36174 7.24018,-3.01437 1.38688,-1.13834 2.64538,-2.71967 2.52042,-4.27702 0.0481,-1.95117 -1.05357,-3.93403 -2.22319,-6.17375 -1.05979,-1.81521 -2.32873,-3.56965 -4.01448,-4.084604 -0.0252,-0.0077 -0.0505,-0.01511 -0.0758,-0.02225 -2.8886,-1.046169 -6.28517,-0.646107 -9.37368,0.105839 -3.707166,0.955091 -6.980356,2.841891 -9.456913,5.258041 -2.991586,2.90317 -4.231272,6.88549 -3.767299,10.26558 0,0 1e-6,0 1e-6,0 0.647025,5.27267 3.438679,10.88479 4.683891,13.57113 1.490981,3.21654 2.239588,5.07367 2.024028,5.18779 z"
       id="path3"
       inkscape:path-effect="#path-effect4;#path-effect5"
       inkscape:original-d="m 94.850298,133.97605 c -3.556886,-6.71857 -7.113773,-13.43713 -10.670659,-20.15569 1.976088,-3.55696 3.952097,-7.11377 5.928143,-10.67066 3.556958,-1.97609 7.113773,-3.952097 10.670658,-5.928145 3.95218,0 7.90419,0 11.85629,0 1.18565,1.778479 2.37126,3.556885 3.55689,5.335335 1.18565,2.56891 2.37125,5.13772 3.55688,7.70658 -1.18565,1.77848 -2.37126,3.55689 -3.55688,5.33533 -2.76653,1.18565 -5.53294,2.37126 -8.29941,3.55689 -3.55695,-0.19761 -7.11377,-0.39521 -10.670655,-0.59282 0.395218,-1.97609 0.790419,-3.95209 1.185629,-5.92814 1.976086,-1.38326 3.952096,-2.76647 5.928146,-4.1497 1.58087,0.59282 3.16168,1.18563 4.74251,1.77844 0.19761,0 0.39521,0 0.59282,0" />
    <path
       style="fill:#0000ff;stroke:#7fc532;stroke-width:5.63139"
       d="m 569.49299,471.13946 c 3.8456,-4.03915 11.23382,-14.40166 16.41829,-23.02781 12.19748,-20.29476 18.76384,-27.10326 30.43983,-31.56236 29.48115,-11.25895 47.06218,23.39951 22.98102,45.30376 -11.87995,10.80602 -17.28382,12.18934 -60.08738,15.38158 l -16.74375,1.24873 z"
       id="path5"
       transform="scale(0.26458333)" />
    <path
       style="fill:#0000ff;stroke:#7fc532;stroke-width:5.63139"
       d="m 373.05295,570.49793 c -10.35427,-3.40228 -24.45052,-11.44514 -54.32161,-30.99413 -50.40439,-32.9869 -60.24615,-43.43256 -52.31961,-55.53 6.83491,-10.43138 12.46706,-7.8384 31.56815,14.53358 25.51634,29.88579 49.33288,43.37745 83.40831,47.24936 23.55752,2.67679 43.22866,-1.09201 66.06298,-12.65703 12.73721,-6.45108 58.37787,-26.08662 89.16253,-38.35955 6.2268,-2.48243 -18.94121,21.86056 -29.86812,28.88906 -5.95287,3.82904 -22.58902,11.74393 -36.96922,17.58863 -14.3802,5.84471 -35.49125,14.8365 -46.91343,19.98175 -21.31254,9.60048 -38.89918,12.88348 -49.80998,9.29833 z"
       id="path6"
       transform="scale(0.26458333)" />
    <path
       style="fill:#0000ff;stroke:#7fc532;stroke-width:0.665001"
       d="m 160.65269,107.89221 c -0.78553,-3.33831 -0.59281,-6.689 -0.59281,-10.07784"
       id="path7" />
    <path
       style="fill:#0000ff;stroke:#7fc532;stroke-width:0.665001"
       d="m 168.95209,109.07784 c 3.68849,-3.8934 4.1497,-6.99601 4.1497,-11.856285"
       id="path8" />
    <circle
       style="fill:#000000;stroke:#7fc532;stroke-width:0.665001"
       id="path9"
       cx="165.98802"
       cy="115.59881"
       r="1.7784431" />
  </g>
</svg>
